<?xml version="1.0" standalone="no"?>
<!DOCTYPE svg PUBLIC "-//W3C//DTD SVG 20010904//EN"
 "http://www.w3.org/TR/2001/REC-SVG-20010904/DTD/svg10.dtd">
<svg version="1.0" xmlns="http://www.w3.org/2000/svg"
 width="500.000000pt" height="500.000000pt" viewBox="0 0 500.000000 500.000000"
 preserveAspectRatio="xMidYMid meet">

<g transform="translate(0.000000,500.000000) scale(0.100000,-0.100000)"
fill="#000000" stroke="none">
<path d="M3048 4499 c-44 -22 -58 -45 -58 -91 0 -25 3 -29 10 -18 7 11 9 7 7
-15 -1 -17 3 -29 9 -28 6 1 9 -8 7 -21 -4 -19 9 -33 78 -84 45 -34 86 -59 90
-56 5 3 10 22 10 42 1 37 1 37 9 7 6 -27 8 -28 14 -10 23 62 41 96 57 111 25
22 24 29 -8 69 -20 25 -30 31 -40 24 -7 -6 -17 -8 -22 -5 -6 4 -46 -12 -91
-34 -44 -22 -80 -38 -80 -35 0 3 31 20 68 39 38 19 76 46 85 60 17 25 16 26
-8 42 -37 24 -94 26 -137 3z m155 -114 c4 -8 2 -17 -3 -20 -6 -4 -10 3 -10 14
0 25 6 27 13 6z m-6 -97 c-2 -13 -4 -3 -4 22 0 25 2 35 4 23 2 -13 2 -33 0
-45z"/>
<path d="M1245 4458 c4 -13 23 -37 43 -54 21 -18 53 -46 72 -64 32 -29 32 -30
5 -12 -16 11 -39 30 -50 42 -18 20 -66 50 -80 50 -14 0 -2 -50 26 -112 24 -51
37 -68 53 -69 15 -1 17 -2 4 -6 -11 -3 -17 -18 -20 -49 -3 -47 0 -51 22 -31
10 8 9 5 -1 -8 -20 -26 -31 -55 -20 -55 5 0 8 -8 7 -17 -1 -12 16 -26 51 -43
29 -14 52 -30 53 -37 0 -7 12 -19 28 -27 36 -20 24 -20 -24 0 -22 9 -47 25
-56 37 -22 28 -32 18 -18 -19 8 -20 8 -48 0 -97 -13 -83 0 -106 59 -109 l36
-1 -32 -4 c-33 -4 -33 -4 -18 -33 9 -18 15 -57 15 -100 0 -69 0 -70 19 -51 11
11 21 37 24 58 l4 38 1 -44 c2 -42 3 -43 20 -28 17 16 19 16 17 0 -1 -10 -6
-26 -10 -37 -5 -12 -3 -21 6 -28 10 -6 -1 -8 -33 -5 l-48 5 0 -55 c0 -60 13
-93 35 -93 12 0 15 16 16 68 l2 67 7 -61 c8 -77 15 -87 49 -79 l26 6 -23 -16
c-14 -10 -21 -23 -18 -32 5 -11 2 -13 -10 -9 -8 3 -24 6 -35 6 -12 0 -19 7
-19 18 0 19 -18 42 -33 42 -5 0 -6 -12 -2 -27 4 -16 7 -37 7 -47 -2 -33 37
-96 58 -96 17 0 20 7 20 42 0 23 3 38 8 34 7 -7 8 -12 11 -39 0 -7 30 -21 65
-30 36 -9 72 -20 80 -23 29 -11 17 17 -15 34 -17 9 -41 25 -53 35 -11 9 -1 6
24 -8 76 -42 80 -39 80 64 0 80 -2 90 -19 96 -12 4 -18 12 -14 21 3 8 -1 14
-8 15 -8 1 -3 4 11 8 l25 7 -2 165 c-1 119 1 147 6 100 5 -35 14 -67 22 -72
10 -6 10 -9 2 -9 -21 0 -17 -174 3 -205 15 -23 15 -25 0 -25 -14 0 -16 -14
-16 -93 0 -87 2 -94 23 -106 14 -7 52 -11 97 -9 l75 3 3 75 c2 62 0 77 -14 87
-16 12 -16 13 -1 13 15 0 16 16 13 162 -4 134 -7 163 -20 170 -23 13 -20 35 5
43 19 6 21 12 15 59 -3 28 -6 72 -6 98 0 41 -3 47 -22 50 -15 2 -24 11 -26 26
-2 12 -15 30 -28 39 -14 8 -22 18 -19 21 3 3 13 -2 22 -10 10 -8 30 -18 46
-22 l27 -6 0 119 c0 105 -2 120 -17 126 -10 3 -38 24 -63 47 -33 29 -36 35
-12 19 29 -20 36 -21 61 -10 27 12 30 18 33 71 l3 58 -103 0 c-100 0 -102 -1
-92 -20 6 -11 8 -25 5 -30 -3 -5 8 -16 25 -25 16 -8 30 -18 30 -21 0 -2 -15 3
-32 13 -18 9 -37 16 -42 15 -10 -3 -36 17 -36 29 0 4 7 15 16 23 14 15 -4 16
-201 16 l-216 0 6 -22z m132 6 c-3 -3 -12 -4 -19 -1 -8 3 -5 6 6 6 11 1 17 -2
13 -5z m109 -89 c-4 -62 -3 -95 4 -95 5 0 10 -6 10 -14 0 -7 15 -18 33 -24
l32 -11 -39 6 -39 6 6 -44 c4 -28 2 -38 -4 -28 -5 7 -9 22 -9 31 0 10 -9 22
-20 28 -11 6 -20 18 -20 26 0 9 -10 25 -22 35 l-23 20 28 -17 c18 -11 31 -14
38 -7 5 5 12 49 16 96 3 48 8 87 11 87 3 0 2 -43 -2 -95z m277 88 c-7 -2 -21
-2 -30 0 -10 3 -4 5 12 5 17 0 24 -2 18 -5z m-445 -10 c-10 -2 -26 -2 -35 0
-10 3 -2 5 17 5 19 0 27 -2 18 -5z m261 -103 c-59 -66 -88 -91 -58 -52 17 22
112 122 117 122 2 0 -25 -31 -59 -70z m107 -120 c3 0 19 7 37 15 26 13 28 13
14 1 -14 -11 -15 -15 -5 -19 7 -2 3 -2 -9 0 -13 2 -23 1 -23 -1 0 -2 -3 -12
-6 -20 -4 -11 10 -31 42 -63 49 -46 34 -42 -19 6 -15 14 -37 26 -49 26 -11 0
-26 8 -32 18 -9 15 -7 22 12 37 19 15 22 29 24 92 l2 73 3 -82 c2 -46 6 -83 9
-83z m167 -7 c-7 -2 -19 -2 -25 0 -7 3 -2 5 12 5 14 0 19 -2 13 -5z m-463 -17
c0 -2 -8 -10 -17 -17 -16 -13 -17 -12 -4 4 13 16 21 21 21 13z m240 -30 c0 -2
-8 -10 -17 -17 -16 -13 -17 -12 -4 4 13 16 21 21 21 13z m42 -91 c-4 -59 -3
-65 14 -66 17 -1 17 -2 2 -6 -19 -5 -24 -59 -9 -96 6 -17 8 -18 21 -3 7 10 27
26 44 38 17 11 10 2 -16 -22 -27 -23 -48 -45 -48 -48 0 -4 42 -6 92 -6 l93 1
-88 -6 c-69 -5 -92 -10 -102 -24 -8 -12 -16 -14 -20 -8 -3 6 -12 11 -20 11 -8
0 -27 12 -42 26 -23 22 -24 25 -5 15 18 -10 22 -9 22 4 0 9 -7 29 -15 45 -9
17 -13 30 -11 30 3 0 13 -15 22 -32 16 -32 31 -48 47 -48 4 0 7 51 7 114 0 99
5 146 15 146 1 0 0 -29 -3 -65z m-130 -13 c-2 -6 3 -23 12 -37 25 -38 19 -39
-19 0 -29 28 -34 40 -29 60 6 25 7 25 24 8 9 -10 15 -24 12 -31z m-102 -62 c0
-5 -5 -10 -11 -10 -5 0 -7 5 -4 10 3 6 8 10 11 10 2 0 4 -4 4 -10z m55 -70 c3
-5 2 -10 -4 -10 -5 0 -13 5 -16 10 -3 6 -2 10 4 10 5 0 13 -4 16 -10z m38
-123 c15 2 12 -1 -8 -10 -16 -8 -32 -13 -33 -11 -2 1 0 18 4 36 8 32 9 32 12
7 2 -22 7 -26 25 -22z m17 -87 c-6 -11 -13 -20 -16 -20 -2 0 0 9 6 20 6 11 13
20 16 20 2 0 0 -9 -6 -20z m-20 -200 c8 -5 11 -10 5 -10 -5 0 -17 5 -25 10 -8
5 -10 10 -5 10 6 0 17 -5 25 -10z"/>
<path d="M1898 4414 c-1 -36 0 -68 3 -70 4 -2 32 14 63 36 71 50 73 43 2 -10
-54 -41 -83 -87 -73 -114 5 -11 27 -16 84 -19 l78 -3 -77 -2 -78 -2 0 -114 0
-114 34 -21 c19 -12 40 -29 47 -38 8 -9 -7 -1 -33 17 -26 19 -50 31 -53 28 -3
-3 -3 -28 0 -54 l7 -49 51 1 52 2 -50 -7 c-49 -6 -50 -6 -53 -44 l-3 -38 28
17 28 18 -24 -26 c-13 -15 -21 -33 -18 -40 8 -23 132 -81 156 -73 19 6 21 14
21 83 0 85 -7 102 -38 105 -19 1 -19 3 -6 29 8 15 21 28 29 28 8 0 15 9 15 20
0 11 4 20 9 20 5 0 13 9 16 21 4 11 9 18 12 16 2 -3 -3 -21 -12 -41 -19 -40
-12 -64 13 -44 9 7 6 0 -6 -16 -19 -25 -22 -41 -22 -122 0 -66 4 -94 12 -94 6
0 32 17 57 38 25 21 65 51 89 66 l42 26 0 100 c0 55 -3 100 -6 100 -3 0 -18
-8 -32 -18 -38 -26 -52 -34 -52 -29 0 3 20 18 45 34 l45 28 0 93 c0 67 -3 92
-12 92 -9 0 -10 3 -2 8 6 4 14 14 17 22 3 8 6 -33 6 -92 1 -60 4 -108 9 -108
4 0 20 7 36 15 16 9 31 13 34 11 2 -3 -13 -13 -34 -23 l-39 -18 -3 -80 c-2
-44 0 -90 3 -103 5 -20 8 -21 28 -11 20 10 19 9 -4 -12 -24 -24 -25 -29 -27
-152 l-2 -127 30 -30 c17 -17 26 -30 20 -30 -6 0 4 -14 22 -31 l33 -31 -40 30
c-23 17 -49 30 -60 29 -11 -1 -24 8 -31 22 -7 13 -26 33 -43 43 -17 11 -31 22
-31 25 0 2 15 -5 34 -16 18 -12 38 -21 45 -21 8 0 11 40 11 130 0 72 -3 130
-7 130 -5 0 -44 -26 -88 -58 -96 -69 -103 -87 -45 -127 43 -30 56 -48 15 -21
-14 9 -36 23 -50 32 l-25 16 0 -118 c0 -66 4 -124 8 -130 4 -7 16 -14 27 -17
15 -3 13 -5 -9 -6 -21 -1 -27 -5 -22 -17 3 -9 6 -37 6 -62 l0 -47 83 1 c45 0
88 1 95 2 9 2 12 32 12 113 0 71 4 108 10 104 6 -3 10 -28 10 -56 l0 -49 73 4
72 5 -77 -11 -78 -11 0 -49 0 -50 53 36 52 37 -45 -42 c-25 -23 -36 -38 -25
-34 11 4 50 8 88 8 l67 1 0 47 c0 29 -6 51 -15 59 -8 7 -15 19 -15 26 0 8 -4
14 -8 14 -5 0 -17 7 -28 16 -18 15 -18 15 3 5 12 -6 31 -11 42 -11 20 0 20 6
21 240 l0 240 -22 2 c-13 0 -28 1 -35 1 -9 -1 -9 7 1 32 13 30 11 38 -14 101
l-29 69 32 27 31 28 -24 32 -23 33 24 -21 c41 -35 59 -21 59 46 0 64 -6 69
-80 71 -19 0 -44 4 -55 9 -18 8 -18 9 5 9 14 0 49 -4 78 -8 l52 -7 0 80 0 80
-27 -25 c-16 -14 -52 -43 -80 -64 -29 -22 -53 -42 -53 -46 0 -4 -3 -14 -6 -23
-3 -9 11 -33 37 -63 34 -37 36 -41 10 -18 -35 31 -37 29 -16 -30 l7 -20 -14
20 c-7 11 -18 36 -23 55 -6 19 -16 36 -23 36 -7 1 -20 2 -30 3 -12 1 -18 8
-18 23 1 16 -11 29 -39 45 -48 27 -39 31 13 4 52 -26 62 -19 62 45 l0 54 -85
0 c-53 0 -85 -4 -85 -10 0 -6 12 -22 28 -36 l27 -26 -32 21 c-17 12 -36 21
-42 21 -14 0 -15 -168 -1 -190 8 -13 19 -10 77 19 81 39 73 27 -12 -19 -33
-17 -65 -36 -70 -40 -6 -5 -17 -5 -25 0 -12 8 -13 13 -2 30 7 11 12 53 12 98
0 43 -6 90 -12 105 -13 26 -16 27 -95 27 l-81 0 -4 -66z m368 -164 c0 -10 -2
-17 -5 -15 -2 3 -11 -1 -19 -8 -13 -10 -14 -9 -7 3 9 16 26 40 29 40 1 0 2 -9
2 -20z m-51 -70 c-9 -16 -18 -30 -21 -30 -2 0 2 14 11 30 9 17 18 30 21 30 2
0 -2 -13 -11 -30z m-113 -88 c2 -34 0 -62 -4 -62 -5 0 -7 39 -7 88 2 91 6 81
11 -26z m73 9 c-21 -43 -29 -39 -8 4 9 19 18 33 21 31 2 -2 -4 -18 -13 -35z
m-32 -56 c-3 -9 -8 -14 -10 -11 -3 3 -2 9 2 15 9 16 15 13 8 -4z m277 -149 c0
-2 -8 -10 -17 -17 -16 -13 -17 -12 -4 4 13 16 21 21 21 13z m-400 -20 c0 -3
-15 -14 -32 -26 l-33 -22 30 26 c31 27 35 29 35 22z m447 -352 c-3 -3 -12 -4
-19 -1 -8 3 -5 6 6 6 11 1 17 -2 13 -5z m-219 -151 c-10 -2 -26 -2 -35 0 -10
3 -2 5 17 5 19 0 27 -2 18 -5z"/>
<path d="M2314 4464 c3 -9 6 -36 6 -60 0 -24 4 -44 8 -44 5 0 31 19 60 43 28
23 61 50 74 59 22 17 20 17 -66 18 -76 0 -87 -2 -82 -16z"/>
<path d="M2520 4459 c0 -23 32 -58 106 -114 37 -28 49 -33 65 -25 15 9 19 22
19 70 0 77 -16 90 -117 90 -68 0 -73 -1 -73 -21z"/>
<path d="M2742 4450 c-21 -9 -23 -15 -20 -77 l3 -68 93 -3 c53 -2 92 1 92 7 0
5 10 6 23 3 22 -6 22 -6 -3 -13 -14 -4 -62 -7 -107 -8 -46 -1 -83 -5 -83 -9 0
-4 21 -29 48 -55 39 -38 53 -46 79 -44 25 1 35 8 44 30 6 15 15 30 20 33 5 2
0 -15 -11 -38 -29 -64 -26 -92 21 -150 22 -28 49 -69 60 -90 30 -59 41 -48 35
35 l-5 72 9 -60 c5 -33 11 -66 12 -74 2 -8 20 13 41 47 50 80 58 80 13 -1 -19
-34 -32 -68 -28 -74 4 -7 38 -14 77 -16 l70 -3 -73 -2 c-41 -1 -72 -6 -70 -11
2 -4 31 -38 64 -75 41 -43 69 -66 84 -66 l22 0 -5 148 c-4 95 -3 126 3 87 4
-33 8 -96 9 -140 l1 -80 33 51 c17 28 47 73 65 99 17 27 32 52 32 56 0 4 -15
10 -34 13 -39 7 -61 29 -77 77 -14 40 -49 88 -49 68 0 -9 -3 -10 -8 -3 -4 6
-15 13 -24 17 -10 3 -18 14 -19 24 0 22 -144 128 -175 129 -31 1 -41 10 -47
41 -7 36 -42 73 -67 73 -11 0 -39 14 -62 30 -44 32 -51 34 -86 20z m282 -303
l8 -67 -29 1 c-25 2 -25 2 -4 6 21 4 23 8 17 46 -13 81 -17 134 -7 106 4 -14
11 -55 15 -92z m146 -56 c-5 -11 -15 -23 -21 -27 -6 -3 -3 5 6 20 20 30 30 35
15 7z m67 -43 c-3 -8 -6 -5 -6 6 -1 11 2 17 5 13 3 -3 4 -12 1 -19z"/>
<path d="M2511 4374 c2 -27 8 -52 13 -56 7 -5 7 -8 -1 -8 -9 0 -13 -20 -13
-65 l0 -66 33 17 c17 9 54 30 80 47 40 26 45 32 30 38 -17 7 -16 8 2 8 16 1
13 7 -20 36 -22 19 -59 48 -83 66 l-44 31 3 -48z m66 -70 c-3 -3 -12 -4 -19
-1 -8 3 -5 6 6 6 11 1 17 -2 13 -5z m46 -11 c-7 -2 -19 -2 -25 0 -7 3 -2 5 12
5 14 0 19 -2 13 -5z"/>
<path d="M2935 4401 c-3 -5 6 -22 20 -38 l24 -28 1 38 c0 30 -4 37 -19 37 -11
0 -22 -4 -26 -9z"/>
<path d="M1201 4310 c0 -36 6 -87 13 -115 10 -41 15 -49 31 -47 47 9 46 49 -5
148 l-40 78 1 -64z"/>
<path d="M3290 4318 c-23 -25 -27 -89 -7 -107 17 -14 35 21 44 85 7 50 -5 56
-37 22z"/>
<path d="M2602 4220 c-40 -27 -78 -50 -85 -53 -18 -6 9 -34 55 -58 21 -11 38
-22 38 -24 0 -3 -22 6 -50 20 l-50 25 0 -72 c0 -100 8 -109 62 -80 24 12 64
38 90 57 l47 35 4 77 3 78 2 -77 c1 -43 5 -78 9 -78 19 0 113 66 113 80 -1 25
-103 113 -136 116 -21 2 -49 -11 -102 -46z"/>
<path d="M2435 4126 c-20 -14 -20 -15 -1 -63 10 -26 21 -58 23 -70 3 -14 13
-23 24 -23 17 0 19 8 19 80 0 44 -4 80 -9 80 -5 0 -15 2 -23 5 -7 3 -22 -1
-33 -9z"/>
<path d="M2786 4090 l-60 -39 -4 -203 c-2 -112 -6 -205 -8 -207 -2 -2 -4 61
-4 140 0 100 -4 149 -12 157 -9 9 -9 12 0 12 8 0 12 17 12 45 0 30 -4 45 -13
45 -7 0 -42 -20 -79 -45 -37 -25 -73 -45 -80 -46 -7 0 -4 -4 7 -9 18 -8 17 -9
-7 -9 -37 -1 -36 -22 5 -75 17 -23 59 -88 92 -144 34 -58 64 -97 69 -92 4 4
15 6 24 2 11 -4 36 17 80 64 35 38 55 55 44 38 -12 -16 -39 -49 -61 -72 -23
-23 -41 -49 -41 -58 0 -9 28 -29 73 -50 39 -19 61 -31 47 -28 -14 4 -47 18
-73 31 -27 13 -51 23 -53 21 -2 -2 7 -20 20 -39 38 -57 60 -94 51 -86 -5 4
-25 31 -45 59 -26 39 -45 54 -75 64 -22 6 -32 12 -22 13 9 1 17 5 17 11 0 14
-139 241 -162 265 -20 20 -20 20 -14 -115 3 -74 6 -148 6 -164 0 -27 2 -28 33
-23 87 15 96 15 32 -2 l-70 -18 -3 -58 c-3 -47 0 -57 11 -52 11 4 13 0 10 -14
-5 -17 1 -19 68 -21 l74 -2 -80 -5 c-55 -4 -80 -10 -79 -18 1 -7 2 -35 3 -63
l1 -50 89 0 89 0 5 33 c4 17 6 83 7 146 0 63 2 117 5 119 3 3 5 -33 5 -81 0
-73 3 -86 18 -90 16 -4 16 -5 0 -6 -15 -1 -18 -11 -18 -61 l0 -60 59 0 c32 0
73 -3 90 -6 27 -6 31 -4 31 15 0 12 -7 33 -16 46 -9 13 -13 28 -10 33 3 5 -8
29 -25 53 l-30 44 33 -38 c18 -20 38 -37 44 -37 7 0 25 -7 40 -15 16 -8 23
-15 17 -15 -7 0 -13 -4 -13 -10 0 -5 6 -10 14 -10 7 0 40 -13 72 -30 32 -16
63 -30 68 -30 5 0 6 63 2 144 -5 136 -4 146 15 168 19 22 20 22 10 1 -15 -30
-14 -100 2 -106 10 -4 10 -6 0 -6 -20 -1 -16 -59 5 -64 16 -4 16 -5 0 -6 -15
-1 -18 -11 -18 -61 0 -33 3 -60 7 -60 3 0 16 8 27 17 19 17 19 16 -1 -7 l-22
-25 85 -1 84 0 1 70 c1 65 2 67 10 31 4 -22 8 -59 8 -82 1 -32 5 -43 17 -43
13 0 15 15 13 93 l-2 92 64 0 c64 0 64 0 67 -30 8 -105 14 -136 25 -132 8 2
12 28 12 69 0 59 3 67 30 91 l30 27 -25 20 c-15 12 -34 18 -47 15 -16 -4 -23
1 -28 16 -8 25 11 41 37 33 13 -4 18 4 23 38 7 40 6 43 -36 79 -25 21 -47 33
-50 27 -7 -11 -19 15 -19 40 0 10 -9 35 -21 56 -17 32 -19 49 -14 105 l6 66
-30 -35 c-49 -56 -101 -149 -101 -180 0 -23 11 -37 58 -73 31 -25 68 -57 82
-72 14 -16 -13 4 -60 43 -95 79 -135 93 -205 70 -40 -13 -40 -13 -46 -73 l-6
-60 -1 58 c-2 57 -2 57 -29 52 l-28 -5 29 11 c29 12 29 12 24 83 -3 40 -2 60
2 46 4 -14 9 -38 9 -55 2 -49 10 -54 64 -42 31 8 47 17 47 27 0 21 -118 136
-152 149 -19 7 -28 18 -28 32 0 23 -99 179 -114 179 -5 0 -6 -14 -2 -31 3 -17
6 -51 6 -74 l0 -43 48 -11 47 -10 -47 4 c-47 5 -48 4 -48 -24 0 -16 3 -43 6
-60 7 -32 7 -32 28 -13 11 11 35 28 51 38 18 11 9 -1 -22 -30 l-53 -48 0 -75
c0 -73 1 -75 23 -70 66 16 75 15 24 -4 l-59 -21 6 -50 c4 -28 8 -54 11 -58 2
-4 32 -13 65 -20 33 -7 58 -15 56 -18 -5 -4 -65 8 -118 24 -14 4 -16 -3 -11
-58 3 -46 2 -59 -6 -48 -6 8 -11 63 -11 122 0 76 -4 108 -12 111 -10 4 -10 6
0 6 9 1 12 38 12 150 l0 150 -37 4 -38 4 38 1 39 2 -8 93 c-9 123 -17 128
-108 67z m-129 -346 c-3 -3 -12 -4 -19 -1 -8 3 -5 6 6 6 11 1 17 -2 13 -5z
m656 -51 c-7 -2 -21 -2 -30 0 -10 3 -4 5 12 5 17 0 24 -2 18 -5z m65 -10 c-10
-2 -26 -2 -35 0 -10 3 -2 5 17 5 19 0 27 -2 18 -5z m-188 -27 c0 -2 -8 -10
-17 -17 -16 -13 -17 -12 -4 4 13 16 21 21 21 13z m127 -216 c22 0 23 -1 9 -16
-9 -8 -16 -20 -16 -25 0 -14 -36 -11 -49 5 -9 11 -8 17 3 29 14 13 14 24 1 98
-8 46 -14 91 -14 99 1 8 10 -31 21 -87 19 -98 21 -103 45 -103z m149 130 c8
-24 10 -40 5 -35 -11 13 -31 74 -30 94 1 18 -1 21 25 -59z m-306 46 c0 -2 -8
-10 -17 -17 -16 -13 -17 -12 -4 4 13 16 21 21 21 13z m-550 -131 c-24 -25 -46
-45 -49 -45 -3 0 15 20 39 45 24 25 46 45 49 45 3 0 -15 -20 -39 -45z m557
-41 c-3 -3 -12 -4 -19 -1 -8 3 -5 6 6 6 11 1 17 -2 13 -5z m220 0 c-3 -3 -12
-4 -19 -1 -8 3 -5 6 6 6 11 1 17 -2 13 -5z m-194 -51 c-7 -2 -19 -2 -25 0 -7
3 -2 5 12 5 14 0 19 -2 13 -5z m-136 -29 c-3 -3 -12 -4 -19 -1 -8 3 -5 6 6 6
11 1 17 -2 13 -5z m163 -17 c0 -2 -12 -14 -27 -28 l-28 -24 24 28 c23 25 31
32 31 24z"/>
<path d="M1230 4087 c0 -24 36 -120 63 -165 l24 -44 7 35 c10 55 -31 154 -74
177 -16 8 -20 8 -20 -3z"/>
<path d="M1310 3764 c0 -35 30 -104 53 -123 15 -12 17 -10 17 23 0 42 -18 82
-49 110 -21 19 -21 19 -21 -10z"/>
<path d="M1897 3663 c3 -49 7 -89 8 -91 2 -2 14 2 27 9 21 11 20 9 -4 -14
l-28 -26 3 -143 2 -143 93 -3 92 -3 0 201 c0 193 -1 200 -20 200 -11 0 -20 6
-20 13 0 10 -137 87 -154 87 -2 0 -1 -39 1 -87z m93 -47 c0 -2 -8 -10 -17 -17
-16 -13 -17 -12 -4 4 13 16 21 21 21 13z m48 -223 c-10 -2 -28 -2 -40 0 -13 2
-5 4 17 4 22 1 32 -1 23 -4z"/>
<path d="M3516 3492 c-3 -5 9 -16 25 -26 23 -13 34 -15 42 -7 8 8 8 11 -2 11
-8 0 -11 6 -7 15 4 11 -2 15 -24 15 -16 0 -31 -4 -34 -8z"/>
<path d="M3563 3392 c-25 -25 -41 -96 -25 -106 19 -12 53 51 50 91 l-3 38 -22
-23z"/>
<path d="M2923 3299 c-6 -6 -8 -20 -6 -32 4 -19 10 -22 38 -19 19 2 55 -3 81
-12 26 -9 49 -14 52 -12 6 7 -76 56 -118 71 -24 9 -41 10 -47 4z"/>
<path d="M1370 3293 c1 -29 32 -117 49 -139 l21 -27 0 28 c0 31 -48 145 -61
145 -5 0 -9 -3 -9 -7z"/>
<path d="M1640 3195 c-11 -13 -8 -15 19 -15 21 0 31 5 31 15 0 8 -8 15 -19 15
-10 0 -24 -7 -31 -15z"/>
<path d="M3309 3206 c-2 -2 -2 -45 1 -95 3 -50 2 -91 -1 -91 -8 0 -19 80 -19
137 0 30 -4 42 -11 37 -7 -4 -9 -24 -5 -55 9 -64 9 -1498 1 -1543 l-7 -34 -59
-1 -59 0 -1 267 c-1 695 -3 802 -15 802 -16 0 -20 -16 -19 -70 2 -56 6 -450 5
-468 0 -10 -5 -10 -20 -2 -19 10 -20 8 -20 -72 0 -57 3 -78 10 -68 8 13 10 12
12 -5 1 -11 4 14 8 55 l6 75 1 -90 c1 -49 -1 -84 -4 -77 -2 6 -11 12 -19 12
-11 0 -14 -34 -16 -177 l-3 -178 -62 -3 -63 -3 0 258 c0 142 0 414 0 606 0
289 -2 347 -13 347 -8 0 -14 -10 -14 -22 -1 -42 -3 -45 -40 -44 -21 0 -66 -1
-100 -2 l-62 -2 -4 -47 -3 -48 -2 48 -2 49 -62 -4 -62 -3 -27 70 c-15 39 -38
98 -52 131 -13 34 -42 114 -62 179 -21 64 -41 113 -44 108 -4 -4 -15 -33 -25
-63 -10 -30 -24 -68 -31 -85 -33 -77 -35 -103 -35 -453 0 -195 -2 -357 -5
-360 -5 -5 -5 27 -6 463 0 197 -2 215 -13 175 -7 -25 -21 -71 -30 -102 l-17
-58 -170 0 -170 0 3 -92 3 -91 85 -58 c47 -32 88 -58 92 -59 4 0 9 21 11 48
l3 47 2 -49 c1 -30 8 -53 17 -60 13 -10 13 -17 0 -58 -8 -27 -11 -48 -8 -48 3
0 -2 -9 -11 -19 -16 -18 -86 -217 -86 -246 0 -7 -7 -18 -15 -25 -8 -7 -15 -16
-15 -21 0 -10 41 -12 64 -3 19 7 21 50 4 57 -7 3 -3 6 9 6 26 1 37 -27 27 -72
-6 -28 -5 -30 10 -18 12 10 16 10 16 1 0 -7 6 -10 14 -7 10 4 14 0 13 -14 -1
-19 -27 -28 -27 -8 0 6 -7 4 -15 -5 -12 -12 -15 -46 -15 -180 l0 -166 -65 0
-65 0 0 203 c-1 185 -2 200 -16 175 -8 -16 -23 -28 -34 -28 -19 0 -20 -8 -20
-175 l0 -176 -67 3 -67 3 -1 135 c-3 216 -3 220 -19 220 -10 0 -16 -13 -19
-37 l-4 -38 -1 38 c-1 20 -6 37 -12 37 -6 0 -10 -67 -10 -180 l0 -180 -70 0
-70 0 0 163 0 162 -29 0 c-16 0 -39 -9 -52 -20 l-24 -20 23 26 c29 33 29 53 0
43 -26 -8 -48 -11 -95 -13 l-33 -1 0 -60 c0 -49 3 -60 17 -60 9 0 13 -3 10 -7
-4 -3 -2 -12 4 -20 7 -8 8 -13 1 -13 -5 0 -9 -8 -7 -17 1 -10 0 -13 -2 -6 -2
6 -14 13 -26 15 -13 2 -23 12 -25 23 -2 11 -32 49 -65 85 l-62 65 67 -64 c37
-36 70 -62 74 -59 3 4 3 34 -1 67 l-7 61 -70 -4 c-39 -2 -74 -8 -78 -13 -5 -4
-10 -36 -12 -71 -3 -69 -6 -67 72 -76 19 -2 9 -3 -22 -2 -55 1 -57 0 -62 -28
-3 -16 -6 -51 -6 -78 l0 -50 82 73 c88 78 80 62 -13 -27 -33 -32 -61 -69 -68
-92 -12 -36 -11 -40 29 -102 22 -36 48 -82 57 -102 25 -60 39 -48 52 44 23
158 59 353 60 325 1 -16 -12 -115 -24 -190 l-5 -28 63 1 c82 2 92 1 84 -7 -4
-3 -38 -5 -77 -4 -79 3 -74 9 -85 -104 -3 -33 -9 -68 -12 -79 -5 -17 -1 -18
43 -13 49 6 49 6 11 -5 -61 -16 -66 -42 -23 -114 20 -32 36 -65 36 -72 0 -9 7
-11 20 -8 11 3 30 9 41 12 14 4 19 2 15 -5 -4 -6 -15 -11 -24 -11 -9 0 -23 -4
-31 -9 -10 -7 -1 -15 38 -31 28 -13 50 -25 47 -27 -2 -3 -25 4 -50 16 -50 21
-59 14 -30 -27 9 -13 25 -22 42 -22 39 0 73 11 66 21 -3 5 2 9 11 9 11 0 15 5
12 14 -3 8 -9 30 -12 49 -4 20 -14 38 -23 41 -46 18 -196 126 -175 126 5 0 28
-16 50 -35 43 -36 127 -78 137 -68 3 4 6 42 6 85 l0 79 -57 -5 -58 -5 52 10
c60 12 63 17 74 124 l7 70 0 -80 c0 -44 0 -86 1 -92 1 -9 22 -13 74 -13 l72 1
-39 34 c-46 41 -44 46 4 10 35 -26 53 -25 43 3 -4 13 -2 13 10 -3 15 -20 15
-19 22 7 4 14 5 58 3 97 l-3 70 25 -6 c34 -8 38 -13 12 -13 -21 0 -22 -5 -22
-81 l0 -80 81 85 c44 47 89 88 101 92 27 8 45 -10 28 -30 -12 -16 -9 -170 4
-183 3 -4 24 4 47 16 22 13 42 21 45 19 2 -3 -14 -15 -37 -27 -22 -13 -39 -24
-37 -26 2 -1 40 -5 85 -9 l82 -6 4 32 4 33 1 -32 2 -33 62 0 c34 0 77 6 95 12
l34 13 -2 112 c-1 62 1 116 4 120 4 3 7 1 7 -5 0 -7 8 -12 17 -12 15 0 15 -1
-1 -13 -16 -12 -17 -23 -11 -108 l7 -94 82 1 c44 1 63 0 41 -2 -96 -10 -125
-16 -125 -28 0 -14 168 -118 174 -107 8 12 18 299 12 319 -4 13 -18 22 -34 25
-15 2 -4 4 23 5 28 0 44 -2 38 -5 -9 -3 -13 -33 -13 -99 l0 -94 74 0 c49 0 77
4 85 13 6 8 9 16 6 19 -3 3 1 11 10 18 11 9 16 34 17 89 l2 76 3 -70 c2 -38 6
-76 8 -83 3 -8 26 8 61 45 57 59 46 37 -13 -27 -18 -19 -33 -37 -33 -41 0 -12
144 -27 158 -16 7 5 13 37 14 76 l2 66 3 -60 c5 -83 8 -89 35 -74 22 12 23 11
5 -8 -17 -20 -17 -20 20 -27 21 -3 59 -6 86 -6 45 0 47 1 47 29 0 17 5 33 10
36 6 4 10 -8 10 -29 0 -35 1 -36 43 -37 23 -1 53 -5 67 -9 15 -5 -1 -6 -42 -3
l-68 6 0 -27 c0 -31 21 -34 77 -11 19 8 47 14 62 14 l26 -2 -25 -4 c-14 -2
-53 -16 -87 -30 -47 -19 -63 -31 -68 -50 -6 -24 -7 -24 -19 -8 -7 10 -11 26
-9 35 3 10 -5 21 -19 28 -21 10 -20 10 10 5 29 -5 32 -3 32 20 0 24 -3 25 -70
29 -62 3 -68 1 -53 -11 17 -13 17 -13 -2 -6 -11 4 -35 9 -53 10 -19 1 -37 7
-41 13 -3 6 -36 16 -71 21 -108 18 -102 22 -96 -66 2 -43 5 -88 5 -99 1 -12 8
-25 17 -28 15 -6 15 -4 3 11 -12 16 -12 17 2 6 13 -11 21 -6 47 30 36 48 104
126 76 86 -11 -14 -37 -50 -60 -80 -60 -80 -60 -78 3 -63 67 15 85 10 22 -6
-75 -19 -79 -21 -79 -36 0 -18 -46 -19 -53 -1 -3 8 -36 21 -74 30 -78 20 -97
21 -88 7 3 -6 -1 -7 -9 -4 -13 5 -16 -3 -16 -49 0 -78 5 -87 52 -87 36 0 39 2
33 23 -4 12 -18 40 -32 62 -14 22 -18 33 -10 25 9 -8 27 -35 40 -60 25 -48 50
-60 86 -40 12 6 21 19 21 30 0 10 5 22 10 25 6 3 10 -2 10 -11 0 -11 9 -5 28
20 27 36 28 37 84 32 32 -2 60 0 63 4 3 5 1 20 -5 34 -6 17 -6 26 0 26 6 0 10
30 10 67 0 94 15 74 19 -24 1 -40 17 -42 54 -7 22 20 31 23 42 14 8 -6 23 -9
35 -5 13 4 20 2 20 -7 0 -7 5 -20 10 -28 8 -12 16 -9 47 21 42 41 82 63 129
73 46 10 50 45 13 118 -16 32 -27 58 -24 58 2 0 16 -21 29 -47 l25 -48 2 65 3
65 5 -70 c5 -56 10 -70 24 -73 9 -2 17 1 17 7 0 12 70 121 77 121 5 0 5 0 -41
-78 -21 -35 -37 -65 -35 -67 2 -2 26 1 53 6 27 5 51 7 54 5 2 -3 -13 -8 -34
-12 -22 -3 -46 -11 -54 -16 -12 -7 -10 -8 5 -4 11 3 37 8 58 12 l37 6 2 62 1
61 6 -55 6 -55 61 -5 c49 -4 60 -2 56 9 -10 26 -127 134 -147 135 -30 1 -28
50 3 54 12 2 26 11 31 20 4 9 9 101 10 205 2 183 2 187 -18 187 -20 0 -21 -5
-21 -179 l0 -179 -58 1 -59 0 -6 180 c-4 99 -7 470 -7 824 0 529 -2 643 -13
643 -8 0 -16 -2 -18 -4z m13 -237 c6 -4 4 -8 -4 -12 -10 -3 -14 4 -15 27 -1
18 1 23 4 11 3 -11 10 -23 15 -26z m-815 -161 c-2 -13 -4 -5 -4 17 -1 22 1 32
4 23 2 -10 2 -28 0 -40z m800 -70 c-2 -13 -4 -5 -4 17 -1 22 1 32 4 23 2 -10
2 -28 0 -40z m4 -129 c0 -45 -3 -84 -6 -87 -3 -3 -5 37 -5 88 0 51 3 91 6 87
3 -3 5 -43 5 -88z m-804 -106 c-2 -32 -3 -8 -3 52 0 61 1 87 3 58 2 -29 2 -78
0 -110z m347 147 l26 -10 0 -185 c0 -158 2 -185 15 -185 12 0 15 20 17 108 l2
107 3 -108 c3 -81 7 -106 16 -101 9 5 9 3 0 -7 -16 -16 -18 -169 -3 -169 6 0
10 -5 10 -11 0 -5 -4 -7 -10 -4 -6 4 -11 -41 -12 -127 -1 -73 -3 -114 -5 -90
-2 23 -8 42 -14 42 -5 0 -9 5 -9 11 0 5 5 7 10 4 15 -9 13 168 -2 183 -9 9 -9
12 0 12 8 0 12 22 12 70 0 55 -3 70 -15 70 -13 0 -15 -48 -17 -347 l-3 -348
-62 -3 -63 -3 0 176 c0 137 -3 176 -12 173 -7 -3 -16 -24 -19 -49 l-6 -44 -1
48 c-2 34 -6 47 -17 47 -13 0 -15 -26 -15 -175 l0 -175 -65 0 -65 0 0 169 c0
103 -4 172 -10 176 -5 3 -10 22 -10 41 0 19 5 34 10 34 6 0 10 93 10 260 l0
261 63 -3 62 -3 2 -224 2 -224 36 -32 35 -33 0 133 c0 125 -1 133 -19 128 -23
-6 -32 22 -22 69 6 29 8 31 13 11 3 -13 11 -23 17 -23 16 0 15 332 -1 348 -9
9 -1 12 39 12 29 0 63 -4 77 -10z m-691 -7 c-13 -2 -33 -2 -45 0 -13 2 -3 4
22 4 25 0 35 -2 23 -4z m465 0 c-21 -2 -55 -2 -75 0 -21 2 -4 4 37 4 41 0 58
-2 38 -4z m687 -173 c3 -5 1 -10 -4 -10 -6 0 -11 5 -11 10 0 6 2 10 4 10 3 0
8 -4 11 -10z m-839 -123 c4 -5 8 -441 6 -604 l-2 -183 -65 0 -65 0 -2 178 c-2
97 -2 275 0 394 l3 217 37 4 c31 3 84 0 88 -6z m-369 -144 c-3 -10 -5 -4 -5
12 0 17 2 24 5 18 2 -7 2 -21 0 -30z m174 -122 c2 -65 2 -209 0 -320 l-3 -201
-64 0 -64 0 0 313 c0 173 3 317 7 320 3 4 32 7 64 7 l57 0 3 -119z m-184 27
c-3 -7 -5 -2 -5 12 0 14 2 19 5 13 2 -7 2 -19 0 -25z m222 -305 c-5 -128 -5
-124 -6 67 0 113 3 175 6 138 3 -36 3 -128 0 -205z m201 148 c0 -71 -6 -63
-14 19 -5 45 -4 60 4 50 5 -8 10 -39 10 -69z m799 -23 c1 -10 -3 -18 -9 -18
-5 0 -10 17 -9 38 0 30 2 33 9 17 5 -11 9 -28 9 -37z m-1422 -65 c-3 -10 -5
-4 -5 12 0 17 2 24 5 18 2 -7 2 -21 0 -30z m-467 -16 c0 -2 -15 -16 -32 -33
l-33 -29 29 33 c28 30 36 37 36 29z m-42 -237 c0 -8 -6 1 -13 20 -7 19 -13 42
-13 50 0 8 6 -1 13 -20 7 -19 13 -42 13 -50z m1537 -75 c0 -14 -7 -20 -21 -20
-12 -1 -30 -7 -40 -15 -18 -14 -18 -14 -3 5 9 11 19 28 22 38 9 24 42 18 42
-8z m-766 -21 c2 -2 -8 -4 -22 -4 -26 0 -27 -2 -27 -55 0 -30 2 -55 4 -55 3 0
21 9 40 21 46 27 47 17 1 -11 -19 -12 -35 -26 -35 -31 0 -12 98 -59 123 -59 9
0 17 -4 17 -10 0 -18 -32 -10 -86 21 -30 17 -58 28 -63 24 -6 -3 -21 -3 -34 0
-18 5 -23 12 -20 25 3 11 12 20 20 22 21 4 30 107 11 120 -8 5 3 6 27 2 22 -4
42 -8 44 -10z m963 -25 c-4 -29 -3 -32 18 -26 21 5 21 5 5 -13 -16 -18 -15
-20 34 -55 28 -20 51 -39 51 -42 0 -3 -23 12 -51 32 -28 20 -53 34 -56 31 -3
-3 -13 -1 -22 3 -12 7 -28 1 -56 -18 -53 -36 -65 -43 -65 -38 0 2 21 19 48 37
26 18 49 35 51 36 2 2 -2 11 -10 21 -8 9 -9 14 -2 10 21 -13 43 4 43 35 0 16
4 27 8 24 5 -3 7 -20 4 -37z m-1862 21 c12 -8 12 -10 -5 -10 -11 0 -27 5 -35
10 -12 8 -12 10 5 10 11 0 27 -5 35 -10z m803 3 c-7 -2 -19 -2 -25 0 -7 3 -2
5 12 5 14 0 19 -2 13 -5z m1200 -30 c-7 -2 -21 -2 -30 0 -10 3 -4 5 12 5 17 0
24 -2 18 -5z m54 1 c-3 -3 -12 -4 -19 -1 -8 3 -5 6 6 6 11 1 17 -2 13 -5z
m-1687 -49 c0 -5 -5 -3 -10 5 -5 8 -10 20 -10 25 0 6 5 3 10 -5 5 -8 10 -19
10 -25z m-183 -7 c-3 -8 -6 -5 -6 6 -1 11 2 17 5 13 3 -3 4 -12 1 -19z m203
-43 c0 -5 -5 -3 -10 5 -5 8 -10 20 -10 25 0 6 5 3 10 -5 5 -8 10 -19 10 -25z
m-193 -7 c-3 -7 -5 -2 -5 12 0 14 2 19 5 13 2 -7 2 -19 0 -25z m1843 -74 c0
-9 -37 15 -51 33 -10 12 -5 11 19 -6 17 -12 32 -24 32 -27z m-309 -71 c13 -16
12 -17 -3 -4 -10 7 -18 15 -18 17 0 8 8 3 21 -13z"/>
<path d="M3626 3089 c-31 -36 -71 -105 -81 -137 -8 -27 28 -81 41 -60 31 49
56 106 64 146 6 26 13 55 16 65 8 27 -12 20 -40 -14z"/>
<path d="M1450 3066 c0 -14 9 -59 19 -99 10 -39 22 -90 26 -111 9 -53 25 -28
25 40 0 55 -33 166 -56 185 -11 9 -14 7 -14 -15z"/>
<path d="M3142 3033 c-1 -13 -6 -23 -12 -23 -5 0 -10 -9 -10 -20 0 -11 5 -20
11 -20 6 0 4 -6 -4 -14 -21 -21 -22 -130 -2 -150 14 -14 14 -16 1 -16 -11 0
-14 -10 -13 -42 2 -38 -1 -43 -20 -46 -20 -3 -23 -9 -23 -48 0 -24 4 -44 9
-44 6 0 24 13 41 28 l30 28 -3 195 c-1 107 -3 184 -5 172z"/>
<path d="M3093 2890 c0 -36 2 -50 4 -32 2 17 2 47 0 65 -2 17 -4 3 -4 -33z"/>
<path d="M3523 2824 c0 -17 7 -36 14 -43 16 -15 15 -6 -2 39 l-14 35 2 -31z"/>
<path d="M3080 2761 c0 -22 5 -43 10 -46 6 -4 10 12 10 39 0 25 -4 46 -10 46
-5 0 -10 -18 -10 -39z"/>
<path d="M3566 2732 c21 -37 42 -58 50 -50 3 3 -12 23 -32 44 l-37 39 19 -33z"/>
<path d="M1746 2702 c-55 -1 -104 -6 -108 -10 -4 -4 9 -16 30 -27 20 -11 39
-22 42 -25 3 -3 32 -21 65 -39 33 -18 72 -45 88 -59 l27 -26 0 97 c0 92 -1 96
-21 94 -12 -1 -67 -3 -123 -5z"/>
<path d="M3090 2588 c-6 -49 -4 -78 5 -78 7 0 9 16 7 38 -4 46 -10 63 -12 40z"/>
<path d="M3086 2485 c4 -8 8 -15 10 -15 2 0 4 7 4 15 0 8 -4 15 -10 15 -5 0
-7 -7 -4 -15z"/>
<path d="M3090 2370 c0 -56 4 -90 10 -90 7 0 10 33 9 90 -1 50 -5 90 -10 90
-5 0 -9 -40 -9 -90z"/>
<path d="M1236 2375 c4 -8 11 -15 16 -15 6 0 5 6 -2 15 -7 8 -14 15 -16 15 -2
0 -1 -7 2 -15z"/>
<path d="M3560 2372 c0 -4 9 -18 20 -32 13 -17 20 -20 20 -10 0 9 -9 23 -20
33 -11 9 -20 13 -20 9z"/>
<path d="M3090 2221 c0 -27 -3 -63 -6 -80 -5 -24 -3 -31 10 -31 13 0 16 13 16
80 0 47 -4 80 -10 80 -5 0 -10 -22 -10 -49z"/>
<path d="M1207 2240 c16 -16 73 -16 73 -1 0 6 -18 9 -41 9 -22 0 -37 -4 -32
-8z"/>
<path d="M1300 2233 c0 -11 3 -14 8 -7 4 6 14 14 22 17 10 4 8 6 -7 6 -16 1
-23 -5 -23 -16z"/>
<path d="M1156 2224 c-9 -22 -8 -26 5 -19 6 4 20 -2 32 -12 12 -11 29 -23 37
-27 8 -4 6 0 -4 8 -11 9 -17 16 -13 16 4 0 0 11 -9 25 -19 28 -39 32 -48 9z"/>
<path d="M1369 2228 c-8 -7 -13 -12 -10 -11 2 1 20 -7 41 -17 35 -18 39 -18
51 -4 26 32 -49 60 -82 32z"/>
<path d="M3521 2214 c0 -11 3 -14 6 -6 3 7 2 16 -1 19 -3 4 -6 -2 -5 -13z"/>
<path d="M1470 2196 c0 -2 7 -6 15 -10 8 -3 15 -1 15 4 0 6 -7 10 -15 10 -8 0
-15 -2 -15 -4z"/>
<path d="M1108 2103 c7 -3 16 -2 19 1 4 3 -2 6 -13 5 -11 0 -14 -3 -6 -6z"/>
<path d="M3566 2095 c4 -8 12 -15 19 -15 6 0 17 -10 23 -22 10 -21 11 -20 5 7
-8 41 -11 45 -33 45 -13 0 -17 -5 -14 -15z"/>
<path d="M1680 2065 c0 -8 4 -15 10 -15 5 0 7 7 4 15 -4 8 -8 15 -10 15 -2 0
-4 -7 -4 -15z"/>
<path d="M1261 2033 c27 -16 27 -16 6 -33 -14 -11 -16 -17 -6 -17 8 0 21 -4
30 -7 25 -11 32 21 11 49 -10 15 -27 24 -42 24 l-25 0 26 -16z"/>
<path d="M1330 2006 c0 -7 123 -87 127 -83 3 4 -113 87 -122 87 -3 0 -5 -2 -5
-4z"/>
<path d="M3558 1913 c-27 -4 -28 -6 -28 -68 0 -55 3 -66 22 -79 22 -16 23 -15
48 51 15 38 24 76 22 86 -4 17 -11 18 -64 10z"/>
<path d="M1061 1901 c-9 -6 -11 -18 -7 -36 l7 -28 37 34 36 34 -32 -38 c-23
-27 -32 -48 -32 -72 0 -32 3 -35 29 -35 28 0 30 3 36 54 10 76 5 91 -30 94
-17 1 -36 -2 -44 -7z"/>
<path d="M3612 1820 c-12 -33 -19 -67 -15 -75 3 -9 -1 -15 -10 -15 -8 0 -18
-11 -21 -24 -3 -13 -9 -32 -13 -42 -5 -13 -3 -16 10 -11 10 4 14 2 12 -6 -3
-7 -1 -18 4 -25 7 -12 14 -11 39 2 53 27 49 18 -8 -20 -57 -37 -122 -103 -113
-116 2 -5 25 -8 50 -8 l46 0 -6 38 -5 37 13 -30 c7 -16 15 -46 19 -65 5 -31 5
-32 -6 -12 -9 18 -19 22 -60 22 -26 0 -48 -4 -48 -8 0 -4 24 -32 54 -61 l54
-53 15 33 c9 19 26 71 38 117 12 45 24 80 26 78 2 -2 -3 -32 -13 -67 -39 -147
-43 -145 66 -29 54 58 96 109 93 113 -7 11 -90 47 -108 47 -7 0 -18 -12 -24
-27 l-11 -28 5 27 c3 15 1 30 -5 33 -6 3 -7 17 -4 29 5 22 -32 182 -46 199 -4
5 -17 -19 -28 -53z"/>
<path d="M3660 1868 c1 -17 38 -156 45 -168 11 -18 21 -10 34 26 7 19 15 33
18 31 2 -3 -3 -22 -11 -42 -9 -21 -16 -41 -16 -46 0 -11 100 -62 108 -55 3 3
8 23 12 43 7 36 8 36 9 8 1 -33 17 -55 38 -55 7 0 13 9 13 20 0 12 -7 20 -17
20 -14 0 -15 2 -5 9 11 6 10 11 -3 25 -9 9 -22 16 -30 16 -20 0 -75 68 -82
101 -8 40 -113 103 -113 67z"/>
<path d="M1083 1728 c3 -13 13 -45 21 -73 l15 -50 0 73 c1 67 0 72 -20 72 -17
0 -20 -4 -16 -22z"/>
<path d="M3524 1690 c-1 -33 2 -60 7 -60 5 0 9 8 9 19 0 10 7 34 15 54 13 31
13 36 -1 41 -27 10 -29 7 -30 -54z"/>
<path d="M3520 1590 c0 -36 3 -37 30 -8 15 16 17 24 8 30 -25 15 -38 8 -38
-22z"/>
<path d="M3935 1603 c-52 -7 -62 -12 -45 -24 11 -8 7 -9 -18 -6 -30 3 -38 -3
-115 -87 -127 -140 -127 -126 3 -126 104 0 112 1 117 20 l6 21 14 -21 c8 -11
18 -20 23 -20 5 0 32 24 61 53 l52 52 -47 -54 c-26 -30 -51 -62 -56 -71 -15
-27 32 -22 62 7 33 31 38 20 6 -14 -15 -17 -17 -23 -7 -23 14 0 45 39 41 53
-1 4 2 6 6 5 5 -2 32 25 60 59 28 34 56 64 62 68 17 10 2 24 -20 18 -11 -3
-27 0 -35 7 -8 7 -15 9 -15 4 0 -5 -11 -22 -24 -39 l-23 -29 0 28 c0 15 2 23
6 18 4 -6 14 2 23 18 20 35 17 36 -84 49 -56 8 -58 9 -20 10 30 1 42 5 40 14
-5 13 -27 17 -73 10z m-57 -143 l-1 -45 -8 45 c-4 25 -7 59 -7 75 l0 30 8 -30
c4 -16 8 -50 8 -75z"/>
<path d="M1784 1424 c-44 -47 -79 -91 -79 -97 0 -7 33 -17 79 -24 105 -16 108
-13 104 108 -2 58 -7 94 -14 96 -7 2 -47 -35 -90 -83z"/>
<path d="M4124 1438 c-91 -99 -107 -118 -98 -118 20 0 122 100 132 130 6 16
10 30 9 30 -2 0 -21 -19 -43 -42z"/>
<path d="M1110 1426 c0 -20 9 -54 20 -76 11 -22 20 -54 20 -72 0 -56 17 -12
19 49 1 55 -14 98 -43 122 -14 12 -16 9 -16 -23z"/>
<path d="M4133 1377 c-10 -16 -80 -70 -112 -87 -21 -11 -44 -10 -138 6 -99 16
-121 16 -171 5 -31 -7 -95 -14 -142 -15 -85 -1 -175 -19 -305 -59 -51 -16 -83
-34 -116 -64 -45 -42 -75 -52 -113 -37 -9 3 -16 13 -16 21 0 10 -6 13 -16 9
-9 -3 -19 -6 -24 -6 -4 0 -10 -13 -13 -30 -4 -19 -18 -37 -39 -50 -32 -20 -42
-20 -113 -4 -16 4 -26 -4 -44 -36 -36 -65 -70 -80 -179 -80 -132 0 -172 -12
-225 -69 -24 -26 -46 -53 -48 -60 -3 -9 -30 -16 -76 -20 -56 -5 -78 -12 -97
-30 -32 -30 -56 -81 -55 -118 0 -24 1 -25 8 -8 18 42 47 57 127 64 l77 6 32
45 c52 74 98 93 243 100 136 6 132 4 197 92 19 26 22 27 65 17 24 -5 55 -8 67
-4 23 5 53 51 53 80 0 24 25 28 59 11 44 -23 84 -20 111 8 90 97 503 164 806
132 106 -11 128 0 189 99 26 41 45 80 42 87 -4 10 -6 10 -6 1 -1 -7 -6 -13
-12 -13 -5 0 -7 5 -4 10 3 6 4 10 1 10 -3 0 -9 -6 -13 -13z"/>
<path d="M1186 1290 c-7 -80 2 -104 26 -68 18 28 17 73 -4 112 -15 28 -15 28
-22 -44z"/>
<path d="M3660 1331 c0 -18 3 -19 31 -9 20 7 67 8 128 5 89 -6 94 -6 67 8 -19
10 -59 15 -127 15 -91 0 -99 -1 -99 -19z"/>
<path d="M2616 1243 c-42 -47 -74 -88 -72 -91 3 -2 41 -14 85 -27 l81 -23 0
114 c0 63 -4 114 -9 114 -5 0 -43 -39 -85 -87z"/>
<path d="M2538 1303 c-15 -4 -18 -16 -18 -64 0 -42 4 -59 13 -59 7 0 39 29 71
65 l57 65 -53 -1 c-29 -1 -61 -3 -70 -6z"/>
<path d="M1495 1228 c3 -40 9 -75 11 -77 2 -3 15 6 29 19 14 13 25 19 25 13 0
-6 -12 -21 -27 -32 -25 -18 -26 -20 -8 -21 18 -1 18 -2 -2 -10 -24 -10 -31
-51 -14 -78 10 -16 22 -3 41 48 14 36 59 100 47 68 -5 -15 0 -18 33 -18 l39 0
4 63 3 62 2 -62 c2 -55 4 -62 25 -66 l22 -4 -22 -2 c-21 -1 -23 -6 -23 -56 0
-30 5 -66 12 -80 11 -24 16 -25 92 -27 l81 -2 -85 -5 -85 -6 35 -22 c19 -13
55 -38 79 -57 25 -19 50 -32 55 -30 7 3 12 64 13 170 1 92 4 183 8 204 4 26 2
40 -8 48 -11 10 -120 30 -169 32 -15 0 -8 -27 13 -56 l21 -29 -27 30 c-15 16
-37 31 -49 32 -11 2 -22 8 -24 13 -2 6 -38 10 -79 10 l-76 0 8 -72z m136 15
c-12 -20 -14 -14 -5 12 4 9 9 14 11 11 3 -2 0 -13 -6 -23z m139 -64 c15 -28 5
-23 -15 7 -9 15 -12 23 -6 20 6 -4 16 -16 21 -27z m38 -45 c5 -8 20 -21 33
-27 24 -13 40 -57 20 -57 -6 0 -11 -8 -11 -17 0 -15 -2 -14 -15 3 -8 10 -15
30 -15 43 0 14 -10 35 -22 48 -12 13 -16 23 -10 23 6 0 15 -7 20 -16z m-52
-115 c-26 -17 -50 -28 -53 -26 -5 5 76 55 92 56 6 0 -12 -13 -39 -30z"/>
<path d="M1920 1270 c0 -6 12 -29 26 -51 14 -23 23 -43 21 -45 -3 -3 -17 17
-33 43 l-28 48 -7 -30 c-4 -16 -7 -60 -8 -97 -1 -57 3 -72 20 -89 l21 -21 -21
7 c-19 6 -21 2 -21 -28 0 -32 3 -35 38 -41 20 -3 52 -6 71 -6 l33 0 -23 20
-24 20 32 -17 c43 -24 24 -34 -57 -31 l-65 3 3 -50 c2 -27 5 -51 7 -53 2 -2
23 8 47 23 41 25 27 10 -27 -29 -38 -26 -22 -35 73 -43 91 -7 87 -10 95 82 3
32 4 28 5 -16 2 -48 5 -57 22 -62 12 -3 33 1 48 9 15 8 47 14 72 14 l45 0 -35
22 c-19 12 -57 35 -85 52 -27 17 -54 30 -58 28 -22 -7 -47 10 -45 32 1 13 -17
57 -41 99 -41 70 -47 76 -80 79 l-36 3 35 5 c19 3 60 2 90 -1 l55 -6 -48 -1
-48 -2 40 -72 c62 -113 70 -106 70 60 l0 139 -46 7 c-69 9 -133 7 -133 -4z
m120 -345 c0 -2 -10 -9 -22 -15 -22 -11 -22 -10 -4 4 21 17 26 19 26 11z"/>
<path d="M2110 1211 c0 -57 1 -60 28 -64 l27 -4 -29 -2 -29 -1 5 -85 c2 -47 7
-87 10 -90 8 -9 169 40 178 54 4 7 5 54 2 105 -3 63 -1 95 7 100 7 5 11 -7 11
-38 l0 -45 33 4 32 5 -32 -10 c-31 -10 -33 -13 -33 -59 0 -26 3 -51 6 -54 4
-4 28 11 53 32 25 21 58 46 74 56 15 9 27 22 27 29 0 15 -148 100 -179 103
-13 1 -29 7 -35 13 -5 5 -43 10 -83 10 l-73 0 0 -59z m136 -15 l-26 -45 22 -4
c17 -3 15 -5 -9 -6 -28 -1 -35 -8 -70 -71 -21 -39 -39 -67 -41 -62 -3 11 65
128 91 157 10 11 25 32 33 48 8 15 17 27 20 27 3 0 -6 -20 -20 -44z"/>
<path d="M1225 1204 c-13 -24 -24 -34 -36 -31 -13 4 -16 -1 -14 -20 2 -22 19
-43 35 -43 11 0 26 17 43 47 15 28 16 36 5 58 l-14 25 -19 -36z"/>
<path d="M3040 1161 c0 -12 5 -21 10 -21 6 0 10 6 10 14 0 8 -4 18 -10 21 -5
3 -10 -3 -10 -14z"/>
<path d="M2926 1135 c4 -8 10 -15 15 -15 5 0 9 7 9 15 0 8 -7 15 -15 15 -9 0
-12 -6 -9 -15z"/>
<path d="M1556 1076 c-24 -70 -19 -83 38 -87 65 -6 76 6 76 80 l0 61 -48 0
-48 0 -18 -54z"/>
<path d="M2415 1075 c-97 -78 -97 -85 9 -85 l86 0 0 70 c0 50 -4 70 -13 70 -7
0 -44 -25 -82 -55z"/>
<path d="M1300 1010 c0 -10 17 -36 39 -57 21 -21 43 -47 49 -58 11 -19 11 -19
12 2 0 29 -66 133 -85 133 -8 0 -15 -9 -15 -20z"/>
<path d="M2201 970 c-35 -11 -65 -21 -68 -23 -5 -5 92 -71 131 -88 34 -16 40
-8 42 53 3 87 0 89 -105 58z"/>
<path d="M1428 973 c-24 -4 -26 -7 -18 -29 6 -14 10 -39 10 -55 0 -29 33 -73
45 -61 4 4 5 2 3 -4 -1 -7 2 -14 7 -15 10 -4 37 149 28 164 -4 7 -27 7 -75 0z"/>
<path d="M1520 960 c-6 -11 -10 -53 -8 -93 l3 -72 29 45 c17 25 46 62 65 83
42 44 34 57 -36 57 -32 0 -45 -5 -53 -20z"/>
<path d="M2320 928 l0 -50 39 35 c22 20 59 41 83 47 24 6 48 12 53 14 6 2 -32
3 -82 3 l-93 1 0 -50z"/>
<path d="M1608 908 c-42 -53 -78 -104 -78 -112 0 -3 34 -6 75 -6 l75 0 -1 53
c-1 62 -10 99 -26 104 -6 2 -26 -15 -45 -39z"/>
<path d="M1684 928 c3 -13 6 -48 6 -78 l0 -55 72 2 73 1 -72 -10 -73 -10 1
-51 c1 -59 10 -97 23 -100 5 -1 24 20 43 47 19 28 48 66 64 85 l31 36 -24 -34
c-61 -88 -98 -147 -98 -158 0 -23 40 -14 95 22 l55 35 2 57 c2 57 2 57 5 11
l4 -48 82 0 82 1 -27 22 c-82 68 -121 92 -146 92 -19 0 -28 6 -30 20 -3 18
-148 135 -167 135 -4 0 -5 -10 -1 -22z"/>
<path d="M1399 813 c-7 -16 -15 -32 -17 -36 -3 -5 5 -4 16 2 29 15 42 14 36
-4 -3 -8 0 -20 8 -28 17 -17 48 -29 48 -18 0 5 -7 11 -15 15 -9 3 -15 18 -15
34 0 25 -25 62 -42 62 -2 0 -11 -12 -19 -27z"/>
<path d="M1959 767 c20 -16 50 -36 68 -45 40 -19 63 -4 63 42 l0 31 -84 1 -84
0 37 -29z"/>
<path d="M2110 789 c0 -5 5 -7 10 -4 6 3 10 8 10 11 0 2 -4 4 -10 4 -5 0 -10
-5 -10 -11z"/>
<path d="M1522 771 c5 -14 137 -131 148 -131 6 0 10 31 10 70 l0 70 -81 0
c-44 0 -79 -4 -77 -9z"/>
<path d="M1510 736 c0 -8 26 -32 58 -53 89 -61 92 -60 22 5 -68 64 -80 71 -80
48z"/>
<path d="M1407 709 c-10 -6 -25 -8 -33 -5 -20 8 -19 -48 2 -69 15 -14 18 -14
40 0 13 8 29 15 36 15 7 0 70 -40 141 -89 116 -81 130 -88 160 -81 38 8 80 29
126 64 30 22 40 24 100 19 55 -5 69 -2 87 13 18 16 20 24 13 52 l-10 32 -76 0
c-74 0 -79 -1 -137 -42 -52 -37 -69 -43 -124 -46 -55 -4 -64 -2 -68 14 -5 20
-19 29 -139 95 -74 41 -89 45 -118 28z"/>
</g>
</svg>
